%
M48
M72
T01C0.01969
T02C0.03200
T03C0.03543
T04C0.03937
T05C0.04000
T06C0.04016
T07C0.05512
T08C0.11024
T09C0.11800
T10C0.11811
T11C0.13000
T12C0.17717
T13C0.26000
%
T01
X49533Y31285
X41659Y47033
X33785Y62781
X25911Y78529
X21974Y90340
X21974Y106088
X21974Y121836
X21974Y137584
X21974Y153332
X21974Y169080
X21974Y184828
X21974Y200576
X21974Y216324
X21974Y232072
X21974Y247820
X21974Y263569
X21974Y279317
X21974Y295065
X21974Y310813
X21974Y326561
X29848Y342309
X37722Y358057
X45596Y373805
X51502Y385616
X57407Y397427
X73155Y397427
X88903Y397427
X104651Y397427
X120399Y397427
X136147Y397427
X151895Y397427
X151600Y384100
X167643Y397427
X183391Y397427
X199139Y397427
X222761Y397427
X238509Y397427
X254257Y397427
X270006Y397427
X285754Y397427
X301502Y397427
X317250Y397427
X332998Y397427
X348746Y397427
X364494Y397427
X372368Y381679
X380242Y365931
X388116Y350183
X395990Y334435
X395990Y322624
X380242Y322624
X364494Y322624
X348746Y322624
X332998Y322624
X325124Y306876
X325124Y291128
X325124Y275380
X325124Y259631
X325124Y243883
X325124Y228135
X325124Y212387
X325124Y196639
X325124Y180891
X309376Y180891
X309376Y165143
X309376Y149395
X295350Y149100
X277850Y149100
X256600Y166600
X241600Y176600
X216600Y175350
X216600Y179100
X206600Y179100
X206600Y164100
X182850Y147850
X182850Y140350
X164350Y144850
X160100Y144850
X144100Y121600
X144100Y101600
X124100Y101600
X124100Y121600
X104100Y121600
X84100Y121600
X84100Y101600
X104100Y101600
X64100Y121600
X64100Y141600
X64100Y161600
X64100Y181600
X64100Y201600
X64100Y221600
X84100Y221600
X104100Y221600
X104100Y201600
X84100Y201600
X84100Y181600
X104100Y181600
X124100Y181600
X131600Y189100
X136600Y189100
X144100Y201600
X144100Y221600
X124100Y221600
X124100Y201600
X97850Y270350
X97850Y287850
X69100Y331600
X109100Y349100
X150350Y349100
X174100Y354100
X161600Y287850
X156600Y282850
X170350Y275350
X186600Y287850
X202850Y285350
X194100Y262850
X212850Y256600
X212850Y241600
X212850Y231600
X231600Y221600
X235350Y206600
X262850Y221600
X267850Y236600
X277850Y234100
X285350Y241600
X289100Y236600
X289100Y246600
X289100Y256600
X287850Y281600
X264100Y279100
X261600Y289100
X261600Y264100
X230350Y271600
X319100Y346600
X325350Y346600
X309376Y133647
X309376Y117899
X309376Y102151
X317250Y94277
X332998Y94277
X348746Y94277
X364494Y94277
X380242Y94277
X395990Y94277
X395990Y82466
X388116Y66718
X380242Y47033
X372368Y31285
X356620Y31285
X340872Y31285
X325124Y31285
X309376Y31285
X277880Y31285
X275567Y29474
X262131Y31285
X246383Y31285
X230635Y31285
X210950Y31285
X195202Y31285
X179454Y31285
X163706Y31285
X147958Y31285
X132210Y31285
X116462Y31285
X100714Y31285
X84966Y31285
X166600Y81600
X166600Y101600
X241600Y106600
T02
X194100Y51100
X194100Y37100
X34100Y241600
X34100Y251600
X34100Y261600
X34100Y271600
X34100Y281600
X34100Y291600
X34100Y301600
X34100Y311600
X34100Y321600
X34100Y331600
X366600Y351600
X371600Y361600
X366600Y371600
T03
X339575Y371600
X339625Y361600
X339575Y351575
X339625Y381600
X175281Y251600
X152171Y164986
X152210Y158293
X152171Y151600
X152210Y144907
X152171Y138214
T04
X246600Y216600
X246600Y226600
X246600Y236600
X246600Y246600
X246600Y256600
X139041Y251600
T05
X141600Y297850
X141600Y307850
X131600Y307850
X131600Y297850
X121600Y297850
X121600Y307850
X111600Y307850
X111600Y297850
X101600Y297850
X101600Y307850
X91600Y307850
X91600Y297850
X119100Y326600
X129100Y326600
X139100Y326600
X149100Y326600
X159100Y326600
X169100Y326600
X179100Y326600
X189100Y326600
X199100Y326600
X209100Y326600
X219100Y326600
X229100Y326600
X239100Y326600
X249100Y326600
X259100Y326600
X269100Y326600
X279100Y326600
X289100Y326600
X299100Y326600
X309100Y326600
X291600Y341600
X291600Y351600
X291600Y361600
X291600Y371600
X291600Y381600
X291600Y391600
X306600Y391600
X306600Y381600
X306600Y371600
X306600Y361600
X306600Y351600
X281600Y307850
X281600Y297850
X271600Y297850
X271600Y307850
X261600Y307850
X261600Y297850
X251600Y297850
X251600Y307850
X241600Y307850
X241600Y297850
X231600Y297850
X231600Y307850
X221600Y307850
X221600Y297850
X211600Y297850
X211600Y307850
X201600Y307850
X201600Y297850
X191600Y297850
X191600Y307850
X181600Y307850
X181600Y297850
X171600Y297850
X171600Y307850
X161600Y307850
X161600Y297850
X151600Y297850
X151600Y307850
X129100Y86600
X119100Y86600
X109100Y86600
X279100Y86600
X289100Y86600
X299100Y86600
T06
X213600Y129100
X203600Y129100
X171600Y129100
X161600Y129100
X161600Y204100
X171600Y204100
X203600Y204100
X213600Y204100
T07
X291757Y52328
X311443Y52328
X128943Y52328
X109257Y52328
T08
X72368Y109828
X72368Y302742
X300714Y302742
X300714Y109828
T09
X265104Y58726
X246600Y70537
X246600Y46915
T10
X250100Y201100
X250100Y272100
X368100Y272100
X368100Y201100
T11
X85100Y151600
T12
X209100Y69100
X370517Y70978
X209100Y344600
X55557Y356411
T13
X70350Y43100
M30
