G75*
%MOIN*%
%OFA0B0*%
%FSLAX25Y25*%
%IPPOS*%
%LPD*%
%AMOC8*
5,1,8,0,0,1.08239X$1,22.5*
%
%ADD10C,0.26400*%
%ADD11C,0.18117*%
%ADD12C,0.11424*%
%ADD13C,0.00600*%
%ADD14C,0.02400*%
%ADD15C,0.04337*%
%ADD16C,0.01969*%
%ADD17C,0.09770*%
%ADD18R,0.07800X0.07800*%
%ADD19C,0.07800*%
%ADD20C,0.17400*%
%ADD21R,0.05124X0.05124*%
%ADD22R,0.06306X0.05518*%
%ADD23R,0.06400X0.06400*%
%ADD24OC8,0.06400*%
%ADD25OC8,0.05600*%
%ADD26R,0.06337X0.06337*%
%ADD27C,0.06337*%
%ADD28C,0.12211*%
%ADD29R,0.05518X0.06306*%
%ADD30C,0.01320*%
%ADD31C,0.13400*%
%ADD32C,0.05943*%
%ADD33R,0.68750X0.47500*%
%ADD34R,0.09849X0.09849*%
%ADD35R,0.16148X0.07487*%
%ADD36R,0.15361X0.05912*%
%ADD37R,0.05912X0.12211*%
%ADD38OC8,0.06700*%
%ADD39C,0.06700*%
%ADD40R,0.11424X0.15361*%
%ADD41OC8,0.07000*%
%ADD42R,0.15361X0.11424*%
%ADD43R,0.06700X0.05000*%
%ADD44R,0.07200X0.00600*%
%ADD45C,0.06825*%
%ADD46R,0.05912X0.15361*%
%ADD47R,0.05912X0.06699*%
%ADD48R,0.07400X0.07400*%
%ADD49OC8,0.07400*%
D10*
X0070350Y0043100D03*
D11*
X0209100Y0069100D03*
X0370517Y0070978D03*
X0209100Y0344600D03*
X0055557Y0356411D03*
D12*
X0072368Y0302742D03*
X0072368Y0109828D03*
X0300714Y0109828D03*
X0300714Y0302742D03*
D13*
X0399100Y0314100D02*
X0399240Y0314102D01*
X0399380Y0314108D01*
X0399520Y0314118D01*
X0399660Y0314131D01*
X0399799Y0314149D01*
X0399938Y0314171D01*
X0400075Y0314196D01*
X0400213Y0314225D01*
X0400349Y0314258D01*
X0400484Y0314295D01*
X0400618Y0314336D01*
X0400751Y0314381D01*
X0400883Y0314429D01*
X0401013Y0314481D01*
X0401142Y0314536D01*
X0401269Y0314595D01*
X0401395Y0314658D01*
X0401519Y0314724D01*
X0401640Y0314793D01*
X0401760Y0314866D01*
X0401878Y0314943D01*
X0401993Y0315022D01*
X0402107Y0315105D01*
X0402217Y0315191D01*
X0402326Y0315280D01*
X0402432Y0315372D01*
X0402535Y0315467D01*
X0402636Y0315564D01*
X0402733Y0315665D01*
X0402828Y0315768D01*
X0402920Y0315874D01*
X0403009Y0315983D01*
X0403095Y0316093D01*
X0403178Y0316207D01*
X0403257Y0316322D01*
X0403334Y0316440D01*
X0403407Y0316560D01*
X0403476Y0316681D01*
X0403542Y0316805D01*
X0403605Y0316931D01*
X0403664Y0317058D01*
X0403719Y0317187D01*
X0403771Y0317317D01*
X0403819Y0317449D01*
X0403864Y0317582D01*
X0403905Y0317716D01*
X0403942Y0317851D01*
X0403975Y0317987D01*
X0404004Y0318125D01*
X0404029Y0318262D01*
X0404051Y0318401D01*
X0404069Y0318540D01*
X0404082Y0318680D01*
X0404092Y0318820D01*
X0404098Y0318960D01*
X0404100Y0319100D01*
X0404098Y0318960D01*
X0404092Y0318820D01*
X0404082Y0318680D01*
X0404069Y0318540D01*
X0404051Y0318401D01*
X0404029Y0318262D01*
X0404004Y0318125D01*
X0403975Y0317987D01*
X0403942Y0317851D01*
X0403905Y0317716D01*
X0403864Y0317582D01*
X0403819Y0317449D01*
X0403771Y0317317D01*
X0403719Y0317187D01*
X0403664Y0317058D01*
X0403605Y0316931D01*
X0403542Y0316805D01*
X0403476Y0316681D01*
X0403407Y0316560D01*
X0403334Y0316440D01*
X0403257Y0316322D01*
X0403178Y0316207D01*
X0403095Y0316093D01*
X0403009Y0315983D01*
X0402920Y0315874D01*
X0402828Y0315768D01*
X0402733Y0315665D01*
X0402636Y0315564D01*
X0402535Y0315467D01*
X0402432Y0315372D01*
X0402326Y0315280D01*
X0402217Y0315191D01*
X0402107Y0315105D01*
X0401993Y0315022D01*
X0401878Y0314943D01*
X0401760Y0314866D01*
X0401640Y0314793D01*
X0401519Y0314724D01*
X0401395Y0314658D01*
X0401269Y0314595D01*
X0401142Y0314536D01*
X0401013Y0314481D01*
X0400883Y0314429D01*
X0400751Y0314381D01*
X0400618Y0314336D01*
X0400484Y0314295D01*
X0400349Y0314258D01*
X0400213Y0314225D01*
X0400075Y0314196D01*
X0399938Y0314171D01*
X0399799Y0314149D01*
X0399660Y0314131D01*
X0399520Y0314118D01*
X0399380Y0314108D01*
X0399240Y0314102D01*
X0399100Y0314100D01*
D14*
X0014516Y0089509D02*
X0044508Y0025587D01*
X0044565Y0025477D01*
X0044626Y0025368D01*
X0044690Y0025262D01*
X0044758Y0025157D01*
X0044829Y0025055D01*
X0044903Y0024955D01*
X0044980Y0024857D01*
X0045061Y0024762D01*
X0045144Y0024669D01*
X0045230Y0024579D01*
X0045319Y0024492D01*
X0045411Y0024408D01*
X0045505Y0024327D01*
X0045602Y0024248D01*
X0045701Y0024173D01*
X0045803Y0024101D01*
X0045906Y0024032D01*
X0046012Y0023967D01*
X0046120Y0023905D01*
X0046230Y0023846D01*
X0046342Y0023791D01*
X0046455Y0023739D01*
X0046570Y0023691D01*
X0046687Y0023647D01*
X0046804Y0023606D01*
X0046923Y0023569D01*
X0047043Y0023536D01*
X0047164Y0023507D01*
X0047286Y0023482D01*
X0047409Y0023460D01*
X0047532Y0023442D01*
X0047656Y0023429D01*
X0047780Y0023419D01*
X0047904Y0023413D01*
X0048029Y0023411D01*
X0372655Y0023411D01*
X0377937Y0026676D02*
X0403656Y0082050D01*
X0403864Y0082931D02*
X0403864Y0098214D01*
X0403862Y0098338D01*
X0403856Y0098461D01*
X0403847Y0098585D01*
X0403833Y0098707D01*
X0403816Y0098830D01*
X0403794Y0098952D01*
X0403769Y0099073D01*
X0403740Y0099193D01*
X0403708Y0099312D01*
X0403671Y0099431D01*
X0403631Y0099548D01*
X0403588Y0099663D01*
X0403540Y0099778D01*
X0403489Y0099890D01*
X0403435Y0100001D01*
X0403377Y0100111D01*
X0403316Y0100218D01*
X0403251Y0100324D01*
X0403183Y0100427D01*
X0403112Y0100528D01*
X0403038Y0100627D01*
X0402961Y0100724D01*
X0402880Y0100818D01*
X0402797Y0100909D01*
X0402711Y0100998D01*
X0402622Y0101084D01*
X0402531Y0101167D01*
X0402437Y0101248D01*
X0402340Y0101325D01*
X0402241Y0101399D01*
X0402140Y0101470D01*
X0402037Y0101538D01*
X0401931Y0101603D01*
X0401824Y0101664D01*
X0401714Y0101722D01*
X0401603Y0101776D01*
X0401491Y0101827D01*
X0401376Y0101875D01*
X0401261Y0101918D01*
X0401144Y0101958D01*
X0401025Y0101995D01*
X0400906Y0102027D01*
X0400786Y0102056D01*
X0400665Y0102081D01*
X0400543Y0102103D01*
X0400420Y0102120D01*
X0400298Y0102134D01*
X0400174Y0102143D01*
X0400051Y0102149D01*
X0399927Y0102151D01*
X0319218Y0102151D01*
X0319094Y0102153D01*
X0318971Y0102159D01*
X0318847Y0102168D01*
X0318725Y0102182D01*
X0318602Y0102199D01*
X0318480Y0102221D01*
X0318359Y0102246D01*
X0318239Y0102275D01*
X0318120Y0102307D01*
X0318001Y0102344D01*
X0317884Y0102384D01*
X0317769Y0102427D01*
X0317654Y0102475D01*
X0317542Y0102526D01*
X0317431Y0102580D01*
X0317321Y0102638D01*
X0317214Y0102699D01*
X0317108Y0102764D01*
X0317005Y0102832D01*
X0316904Y0102903D01*
X0316805Y0102977D01*
X0316708Y0103054D01*
X0316614Y0103135D01*
X0316523Y0103218D01*
X0316434Y0103304D01*
X0316348Y0103393D01*
X0316265Y0103484D01*
X0316184Y0103578D01*
X0316107Y0103675D01*
X0316033Y0103774D01*
X0315962Y0103875D01*
X0315894Y0103978D01*
X0315829Y0104084D01*
X0315768Y0104191D01*
X0315710Y0104301D01*
X0315656Y0104412D01*
X0315605Y0104524D01*
X0315557Y0104639D01*
X0315514Y0104754D01*
X0315474Y0104871D01*
X0315437Y0104990D01*
X0315405Y0105109D01*
X0315376Y0105229D01*
X0315351Y0105350D01*
X0315329Y0105472D01*
X0315312Y0105595D01*
X0315298Y0105717D01*
X0315289Y0105841D01*
X0315283Y0105964D01*
X0315281Y0106088D01*
X0315281Y0169080D01*
X0315283Y0169204D01*
X0315289Y0169327D01*
X0315298Y0169451D01*
X0315312Y0169573D01*
X0315329Y0169696D01*
X0315351Y0169818D01*
X0315376Y0169939D01*
X0315405Y0170059D01*
X0315437Y0170178D01*
X0315474Y0170297D01*
X0315514Y0170414D01*
X0315557Y0170529D01*
X0315605Y0170644D01*
X0315656Y0170756D01*
X0315710Y0170867D01*
X0315768Y0170977D01*
X0315829Y0171084D01*
X0315894Y0171190D01*
X0315962Y0171293D01*
X0316033Y0171394D01*
X0316107Y0171493D01*
X0316184Y0171590D01*
X0316265Y0171684D01*
X0316348Y0171775D01*
X0316434Y0171864D01*
X0316523Y0171950D01*
X0316614Y0172033D01*
X0316708Y0172114D01*
X0316805Y0172191D01*
X0316904Y0172265D01*
X0317005Y0172336D01*
X0317108Y0172404D01*
X0317214Y0172469D01*
X0317321Y0172530D01*
X0317431Y0172588D01*
X0317542Y0172642D01*
X0317654Y0172693D01*
X0317769Y0172741D01*
X0317884Y0172784D01*
X0318001Y0172824D01*
X0318120Y0172861D01*
X0318239Y0172893D01*
X0318359Y0172922D01*
X0318480Y0172947D01*
X0318602Y0172969D01*
X0318725Y0172986D01*
X0318847Y0173000D01*
X0318971Y0173009D01*
X0319094Y0173015D01*
X0319218Y0173017D01*
X0331029Y0173017D01*
X0331115Y0173019D01*
X0331201Y0173024D01*
X0331286Y0173034D01*
X0331371Y0173047D01*
X0331455Y0173064D01*
X0331539Y0173084D01*
X0331621Y0173108D01*
X0331702Y0173136D01*
X0331783Y0173167D01*
X0331861Y0173201D01*
X0331938Y0173239D01*
X0332014Y0173281D01*
X0332087Y0173325D01*
X0332158Y0173373D01*
X0332228Y0173424D01*
X0332295Y0173478D01*
X0332359Y0173534D01*
X0332421Y0173594D01*
X0332481Y0173656D01*
X0332537Y0173720D01*
X0332591Y0173787D01*
X0332642Y0173857D01*
X0332690Y0173928D01*
X0332734Y0174002D01*
X0332776Y0174077D01*
X0332814Y0174154D01*
X0332848Y0174232D01*
X0332879Y0174313D01*
X0332907Y0174394D01*
X0332931Y0174476D01*
X0332951Y0174560D01*
X0332968Y0174644D01*
X0332981Y0174729D01*
X0332991Y0174814D01*
X0332996Y0174900D01*
X0332998Y0174986D01*
X0332998Y0310813D01*
X0333000Y0310937D01*
X0333006Y0311060D01*
X0333015Y0311184D01*
X0333029Y0311306D01*
X0333046Y0311429D01*
X0333068Y0311551D01*
X0333093Y0311672D01*
X0333122Y0311792D01*
X0333154Y0311911D01*
X0333191Y0312030D01*
X0333231Y0312147D01*
X0333274Y0312262D01*
X0333322Y0312377D01*
X0333373Y0312489D01*
X0333427Y0312600D01*
X0333485Y0312710D01*
X0333546Y0312817D01*
X0333611Y0312923D01*
X0333679Y0313026D01*
X0333750Y0313127D01*
X0333824Y0313226D01*
X0333901Y0313323D01*
X0333982Y0313417D01*
X0334065Y0313508D01*
X0334151Y0313597D01*
X0334240Y0313683D01*
X0334331Y0313766D01*
X0334425Y0313847D01*
X0334522Y0313924D01*
X0334621Y0313998D01*
X0334722Y0314069D01*
X0334825Y0314137D01*
X0334931Y0314202D01*
X0335038Y0314263D01*
X0335148Y0314321D01*
X0335259Y0314375D01*
X0335371Y0314426D01*
X0335486Y0314474D01*
X0335601Y0314517D01*
X0335718Y0314557D01*
X0335837Y0314594D01*
X0335956Y0314626D01*
X0336076Y0314655D01*
X0336197Y0314680D01*
X0336319Y0314702D01*
X0336442Y0314719D01*
X0336564Y0314733D01*
X0336688Y0314742D01*
X0336811Y0314748D01*
X0336935Y0314750D01*
X0399927Y0314750D01*
X0400051Y0314752D01*
X0400174Y0314758D01*
X0400298Y0314767D01*
X0400420Y0314781D01*
X0400543Y0314798D01*
X0400665Y0314820D01*
X0400786Y0314845D01*
X0400906Y0314874D01*
X0401025Y0314906D01*
X0401144Y0314943D01*
X0401261Y0314983D01*
X0401376Y0315026D01*
X0401491Y0315074D01*
X0401603Y0315125D01*
X0401714Y0315179D01*
X0401824Y0315237D01*
X0401931Y0315298D01*
X0402037Y0315363D01*
X0402140Y0315431D01*
X0402241Y0315502D01*
X0402340Y0315576D01*
X0402437Y0315653D01*
X0402531Y0315734D01*
X0402622Y0315817D01*
X0402711Y0315903D01*
X0402797Y0315992D01*
X0402880Y0316083D01*
X0402961Y0316177D01*
X0403038Y0316274D01*
X0403112Y0316373D01*
X0403183Y0316474D01*
X0403251Y0316577D01*
X0403316Y0316683D01*
X0403377Y0316790D01*
X0403435Y0316900D01*
X0403489Y0317011D01*
X0403540Y0317123D01*
X0403588Y0317238D01*
X0403631Y0317353D01*
X0403671Y0317470D01*
X0403708Y0317589D01*
X0403740Y0317708D01*
X0403769Y0317828D01*
X0403794Y0317949D01*
X0403816Y0318071D01*
X0403833Y0318194D01*
X0403847Y0318316D01*
X0403856Y0318440D01*
X0403862Y0318563D01*
X0403864Y0318687D01*
X0403864Y0333970D01*
X0403656Y0334850D02*
X0369519Y0403124D01*
X0369519Y0403125D02*
X0369462Y0403235D01*
X0369401Y0403344D01*
X0369337Y0403450D01*
X0369269Y0403555D01*
X0369198Y0403657D01*
X0369124Y0403757D01*
X0369047Y0403855D01*
X0368966Y0403950D01*
X0368883Y0404043D01*
X0368797Y0404133D01*
X0368708Y0404220D01*
X0368616Y0404304D01*
X0368522Y0404385D01*
X0368425Y0404464D01*
X0368326Y0404539D01*
X0368224Y0404611D01*
X0368121Y0404680D01*
X0368015Y0404745D01*
X0367907Y0404807D01*
X0367797Y0404866D01*
X0367685Y0404921D01*
X0367572Y0404973D01*
X0367457Y0405021D01*
X0367340Y0405065D01*
X0367223Y0405106D01*
X0367104Y0405143D01*
X0366984Y0405176D01*
X0366863Y0405205D01*
X0366741Y0405230D01*
X0366618Y0405252D01*
X0366495Y0405270D01*
X0366371Y0405283D01*
X0366247Y0405293D01*
X0366123Y0405299D01*
X0365998Y0405301D01*
X0056911Y0405301D01*
X0051931Y0402223D02*
X0014516Y0327392D01*
X0014100Y0325631D02*
X0014100Y0091270D01*
X0014102Y0091148D01*
X0014108Y0091027D01*
X0014117Y0090905D01*
X0014130Y0090784D01*
X0014147Y0090664D01*
X0014168Y0090544D01*
X0014192Y0090425D01*
X0014220Y0090306D01*
X0014251Y0090189D01*
X0014287Y0090072D01*
X0014325Y0089957D01*
X0014368Y0089843D01*
X0014414Y0089730D01*
X0014463Y0089619D01*
X0014516Y0089509D01*
X0014463Y0089619D01*
X0014414Y0089730D01*
X0014368Y0089843D01*
X0014325Y0089957D01*
X0014287Y0090072D01*
X0014251Y0090189D01*
X0014220Y0090306D01*
X0014192Y0090425D01*
X0014168Y0090544D01*
X0014147Y0090664D01*
X0014130Y0090784D01*
X0014117Y0090905D01*
X0014108Y0091027D01*
X0014102Y0091148D01*
X0014100Y0091270D01*
X0044508Y0025587D02*
X0044565Y0025477D01*
X0044626Y0025368D01*
X0044690Y0025262D01*
X0044758Y0025157D01*
X0044829Y0025055D01*
X0044903Y0024955D01*
X0044980Y0024857D01*
X0045061Y0024762D01*
X0045144Y0024669D01*
X0045230Y0024579D01*
X0045319Y0024492D01*
X0045411Y0024408D01*
X0045505Y0024327D01*
X0045602Y0024248D01*
X0045701Y0024173D01*
X0045803Y0024101D01*
X0045906Y0024032D01*
X0046012Y0023967D01*
X0046120Y0023905D01*
X0046230Y0023846D01*
X0046342Y0023791D01*
X0046455Y0023739D01*
X0046570Y0023691D01*
X0046687Y0023647D01*
X0046804Y0023606D01*
X0046923Y0023569D01*
X0047043Y0023536D01*
X0047164Y0023507D01*
X0047286Y0023482D01*
X0047409Y0023460D01*
X0047532Y0023442D01*
X0047656Y0023429D01*
X0047780Y0023419D01*
X0047904Y0023413D01*
X0048029Y0023411D01*
X0315281Y0106088D02*
X0315283Y0105964D01*
X0315289Y0105841D01*
X0315298Y0105717D01*
X0315312Y0105595D01*
X0315329Y0105472D01*
X0315351Y0105350D01*
X0315376Y0105229D01*
X0315405Y0105109D01*
X0315437Y0104990D01*
X0315474Y0104871D01*
X0315514Y0104754D01*
X0315557Y0104639D01*
X0315605Y0104524D01*
X0315656Y0104412D01*
X0315710Y0104301D01*
X0315768Y0104191D01*
X0315829Y0104084D01*
X0315894Y0103978D01*
X0315962Y0103875D01*
X0316033Y0103774D01*
X0316107Y0103675D01*
X0316184Y0103578D01*
X0316265Y0103484D01*
X0316348Y0103393D01*
X0316434Y0103304D01*
X0316523Y0103218D01*
X0316614Y0103135D01*
X0316708Y0103054D01*
X0316805Y0102977D01*
X0316904Y0102903D01*
X0317005Y0102832D01*
X0317108Y0102764D01*
X0317214Y0102699D01*
X0317321Y0102638D01*
X0317431Y0102580D01*
X0317542Y0102526D01*
X0317654Y0102475D01*
X0317769Y0102427D01*
X0317884Y0102384D01*
X0318001Y0102344D01*
X0318120Y0102307D01*
X0318239Y0102275D01*
X0318359Y0102246D01*
X0318480Y0102221D01*
X0318602Y0102199D01*
X0318725Y0102182D01*
X0318847Y0102168D01*
X0318971Y0102159D01*
X0319094Y0102153D01*
X0319218Y0102151D01*
X0315281Y0169080D02*
X0315283Y0169204D01*
X0315289Y0169327D01*
X0315298Y0169451D01*
X0315312Y0169573D01*
X0315329Y0169696D01*
X0315351Y0169818D01*
X0315376Y0169939D01*
X0315405Y0170059D01*
X0315437Y0170178D01*
X0315474Y0170297D01*
X0315514Y0170414D01*
X0315557Y0170529D01*
X0315605Y0170644D01*
X0315656Y0170756D01*
X0315710Y0170867D01*
X0315768Y0170977D01*
X0315829Y0171084D01*
X0315894Y0171190D01*
X0315962Y0171293D01*
X0316033Y0171394D01*
X0316107Y0171493D01*
X0316184Y0171590D01*
X0316265Y0171684D01*
X0316348Y0171775D01*
X0316434Y0171864D01*
X0316523Y0171950D01*
X0316614Y0172033D01*
X0316708Y0172114D01*
X0316805Y0172191D01*
X0316904Y0172265D01*
X0317005Y0172336D01*
X0317108Y0172404D01*
X0317214Y0172469D01*
X0317321Y0172530D01*
X0317431Y0172588D01*
X0317542Y0172642D01*
X0317654Y0172693D01*
X0317769Y0172741D01*
X0317884Y0172784D01*
X0318001Y0172824D01*
X0318120Y0172861D01*
X0318239Y0172893D01*
X0318359Y0172922D01*
X0318480Y0172947D01*
X0318602Y0172969D01*
X0318725Y0172986D01*
X0318847Y0173000D01*
X0318971Y0173009D01*
X0319094Y0173015D01*
X0319218Y0173017D01*
X0331029Y0173017D02*
X0331115Y0173019D01*
X0331201Y0173024D01*
X0331286Y0173034D01*
X0331371Y0173047D01*
X0331455Y0173064D01*
X0331539Y0173084D01*
X0331621Y0173108D01*
X0331702Y0173136D01*
X0331783Y0173167D01*
X0331861Y0173201D01*
X0331938Y0173239D01*
X0332014Y0173281D01*
X0332087Y0173325D01*
X0332158Y0173373D01*
X0332228Y0173424D01*
X0332295Y0173478D01*
X0332359Y0173534D01*
X0332421Y0173594D01*
X0332481Y0173656D01*
X0332537Y0173720D01*
X0332591Y0173787D01*
X0332642Y0173857D01*
X0332690Y0173928D01*
X0332734Y0174002D01*
X0332776Y0174077D01*
X0332814Y0174154D01*
X0332848Y0174232D01*
X0332879Y0174313D01*
X0332907Y0174394D01*
X0332931Y0174476D01*
X0332951Y0174560D01*
X0332968Y0174644D01*
X0332981Y0174729D01*
X0332991Y0174814D01*
X0332996Y0174900D01*
X0332998Y0174986D01*
X0399927Y0102151D02*
X0400051Y0102149D01*
X0400174Y0102143D01*
X0400298Y0102134D01*
X0400420Y0102120D01*
X0400543Y0102103D01*
X0400665Y0102081D01*
X0400786Y0102056D01*
X0400906Y0102027D01*
X0401025Y0101995D01*
X0401144Y0101958D01*
X0401261Y0101918D01*
X0401376Y0101875D01*
X0401491Y0101827D01*
X0401603Y0101776D01*
X0401714Y0101722D01*
X0401824Y0101664D01*
X0401931Y0101603D01*
X0402037Y0101538D01*
X0402140Y0101470D01*
X0402241Y0101399D01*
X0402340Y0101325D01*
X0402437Y0101248D01*
X0402531Y0101167D01*
X0402622Y0101084D01*
X0402711Y0100998D01*
X0402797Y0100909D01*
X0402880Y0100818D01*
X0402961Y0100724D01*
X0403038Y0100627D01*
X0403112Y0100528D01*
X0403183Y0100427D01*
X0403251Y0100324D01*
X0403316Y0100218D01*
X0403377Y0100111D01*
X0403435Y0100001D01*
X0403489Y0099890D01*
X0403540Y0099778D01*
X0403588Y0099663D01*
X0403631Y0099548D01*
X0403671Y0099431D01*
X0403708Y0099312D01*
X0403740Y0099193D01*
X0403769Y0099073D01*
X0403794Y0098952D01*
X0403816Y0098830D01*
X0403833Y0098707D01*
X0403847Y0098585D01*
X0403856Y0098461D01*
X0403862Y0098338D01*
X0403864Y0098214D01*
X0403864Y0082931D02*
X0403862Y0082848D01*
X0403857Y0082765D01*
X0403848Y0082683D01*
X0403836Y0082601D01*
X0403820Y0082519D01*
X0403801Y0082438D01*
X0403779Y0082358D01*
X0403753Y0082280D01*
X0403724Y0082202D01*
X0403692Y0082125D01*
X0403656Y0082050D01*
X0403692Y0082125D01*
X0403724Y0082202D01*
X0403753Y0082280D01*
X0403779Y0082358D01*
X0403801Y0082438D01*
X0403820Y0082519D01*
X0403836Y0082601D01*
X0403848Y0082683D01*
X0403857Y0082765D01*
X0403862Y0082848D01*
X0403864Y0082931D01*
X0377937Y0026676D02*
X0377868Y0026541D01*
X0377795Y0026407D01*
X0377718Y0026276D01*
X0377638Y0026147D01*
X0377555Y0026019D01*
X0377468Y0025894D01*
X0377378Y0025772D01*
X0377286Y0025651D01*
X0377190Y0025533D01*
X0377091Y0025418D01*
X0376989Y0025305D01*
X0376884Y0025195D01*
X0376777Y0025087D01*
X0376666Y0024982D01*
X0376553Y0024880D01*
X0376438Y0024782D01*
X0376320Y0024686D01*
X0376200Y0024593D01*
X0376077Y0024503D01*
X0375952Y0024417D01*
X0375824Y0024333D01*
X0375695Y0024254D01*
X0375564Y0024177D01*
X0375430Y0024104D01*
X0375295Y0024034D01*
X0375158Y0023968D01*
X0375020Y0023905D01*
X0374880Y0023846D01*
X0374738Y0023791D01*
X0374595Y0023739D01*
X0374451Y0023691D01*
X0374305Y0023646D01*
X0374159Y0023606D01*
X0374011Y0023569D01*
X0373863Y0023536D01*
X0373714Y0023507D01*
X0373564Y0023481D01*
X0373413Y0023460D01*
X0373262Y0023442D01*
X0373111Y0023429D01*
X0372959Y0023419D01*
X0372807Y0023413D01*
X0372655Y0023411D01*
X0372807Y0023413D01*
X0372959Y0023419D01*
X0373111Y0023429D01*
X0373262Y0023442D01*
X0373413Y0023460D01*
X0373564Y0023481D01*
X0373714Y0023507D01*
X0373863Y0023536D01*
X0374011Y0023569D01*
X0374159Y0023606D01*
X0374305Y0023646D01*
X0374451Y0023691D01*
X0374595Y0023739D01*
X0374738Y0023791D01*
X0374880Y0023846D01*
X0375020Y0023905D01*
X0375158Y0023968D01*
X0375295Y0024034D01*
X0375430Y0024104D01*
X0375564Y0024177D01*
X0375695Y0024254D01*
X0375824Y0024333D01*
X0375952Y0024417D01*
X0376077Y0024503D01*
X0376200Y0024593D01*
X0376320Y0024686D01*
X0376438Y0024782D01*
X0376553Y0024880D01*
X0376666Y0024982D01*
X0376777Y0025087D01*
X0376884Y0025195D01*
X0376989Y0025305D01*
X0377091Y0025418D01*
X0377190Y0025533D01*
X0377286Y0025651D01*
X0377378Y0025772D01*
X0377468Y0025894D01*
X0377555Y0026019D01*
X0377638Y0026147D01*
X0377718Y0026276D01*
X0377795Y0026407D01*
X0377868Y0026541D01*
X0377937Y0026676D01*
X0332998Y0310813D02*
X0333000Y0310937D01*
X0333006Y0311060D01*
X0333015Y0311184D01*
X0333029Y0311306D01*
X0333046Y0311429D01*
X0333068Y0311551D01*
X0333093Y0311672D01*
X0333122Y0311792D01*
X0333154Y0311911D01*
X0333191Y0312030D01*
X0333231Y0312147D01*
X0333274Y0312262D01*
X0333322Y0312377D01*
X0333373Y0312489D01*
X0333427Y0312600D01*
X0333485Y0312710D01*
X0333546Y0312817D01*
X0333611Y0312923D01*
X0333679Y0313026D01*
X0333750Y0313127D01*
X0333824Y0313226D01*
X0333901Y0313323D01*
X0333982Y0313417D01*
X0334065Y0313508D01*
X0334151Y0313597D01*
X0334240Y0313683D01*
X0334331Y0313766D01*
X0334425Y0313847D01*
X0334522Y0313924D01*
X0334621Y0313998D01*
X0334722Y0314069D01*
X0334825Y0314137D01*
X0334931Y0314202D01*
X0335038Y0314263D01*
X0335148Y0314321D01*
X0335259Y0314375D01*
X0335371Y0314426D01*
X0335486Y0314474D01*
X0335601Y0314517D01*
X0335718Y0314557D01*
X0335837Y0314594D01*
X0335956Y0314626D01*
X0336076Y0314655D01*
X0336197Y0314680D01*
X0336319Y0314702D01*
X0336442Y0314719D01*
X0336564Y0314733D01*
X0336688Y0314742D01*
X0336811Y0314748D01*
X0336935Y0314750D01*
X0399927Y0314750D02*
X0400051Y0314752D01*
X0400174Y0314758D01*
X0400298Y0314767D01*
X0400420Y0314781D01*
X0400543Y0314798D01*
X0400665Y0314820D01*
X0400786Y0314845D01*
X0400906Y0314874D01*
X0401025Y0314906D01*
X0401144Y0314943D01*
X0401261Y0314983D01*
X0401376Y0315026D01*
X0401491Y0315074D01*
X0401603Y0315125D01*
X0401714Y0315179D01*
X0401824Y0315237D01*
X0401931Y0315298D01*
X0402037Y0315363D01*
X0402140Y0315431D01*
X0402241Y0315502D01*
X0402340Y0315576D01*
X0402437Y0315653D01*
X0402531Y0315734D01*
X0402622Y0315817D01*
X0402711Y0315903D01*
X0402797Y0315992D01*
X0402880Y0316083D01*
X0402961Y0316177D01*
X0403038Y0316274D01*
X0403112Y0316373D01*
X0403183Y0316474D01*
X0403251Y0316577D01*
X0403316Y0316683D01*
X0403377Y0316790D01*
X0403435Y0316900D01*
X0403489Y0317011D01*
X0403540Y0317123D01*
X0403588Y0317238D01*
X0403631Y0317353D01*
X0403671Y0317470D01*
X0403708Y0317589D01*
X0403740Y0317708D01*
X0403769Y0317828D01*
X0403794Y0317949D01*
X0403816Y0318071D01*
X0403833Y0318194D01*
X0403847Y0318316D01*
X0403856Y0318440D01*
X0403862Y0318563D01*
X0403864Y0318687D01*
X0403864Y0333970D02*
X0403862Y0334053D01*
X0403857Y0334136D01*
X0403848Y0334218D01*
X0403836Y0334300D01*
X0403820Y0334382D01*
X0403801Y0334463D01*
X0403779Y0334543D01*
X0403753Y0334621D01*
X0403724Y0334699D01*
X0403692Y0334776D01*
X0403656Y0334851D01*
X0403692Y0334776D01*
X0403724Y0334699D01*
X0403753Y0334621D01*
X0403779Y0334543D01*
X0403801Y0334463D01*
X0403820Y0334382D01*
X0403836Y0334300D01*
X0403848Y0334218D01*
X0403857Y0334136D01*
X0403862Y0334053D01*
X0403864Y0333970D01*
X0369519Y0403125D02*
X0369462Y0403235D01*
X0369401Y0403344D01*
X0369337Y0403450D01*
X0369269Y0403555D01*
X0369198Y0403657D01*
X0369124Y0403757D01*
X0369047Y0403855D01*
X0368966Y0403950D01*
X0368883Y0404043D01*
X0368797Y0404133D01*
X0368708Y0404220D01*
X0368616Y0404304D01*
X0368522Y0404385D01*
X0368425Y0404464D01*
X0368326Y0404539D01*
X0368224Y0404611D01*
X0368121Y0404680D01*
X0368015Y0404745D01*
X0367907Y0404807D01*
X0367797Y0404866D01*
X0367685Y0404921D01*
X0367572Y0404973D01*
X0367457Y0405021D01*
X0367340Y0405065D01*
X0367223Y0405106D01*
X0367104Y0405143D01*
X0366984Y0405176D01*
X0366863Y0405205D01*
X0366741Y0405230D01*
X0366618Y0405252D01*
X0366495Y0405270D01*
X0366371Y0405283D01*
X0366247Y0405293D01*
X0366123Y0405299D01*
X0365998Y0405301D01*
X0056911Y0405301D02*
X0056764Y0405299D01*
X0056618Y0405293D01*
X0056471Y0405284D01*
X0056325Y0405270D01*
X0056179Y0405253D01*
X0056034Y0405232D01*
X0055889Y0405206D01*
X0055745Y0405178D01*
X0055602Y0405145D01*
X0055460Y0405109D01*
X0055319Y0405069D01*
X0055179Y0405025D01*
X0055040Y0404977D01*
X0054902Y0404926D01*
X0054766Y0404871D01*
X0054632Y0404813D01*
X0054498Y0404751D01*
X0054367Y0404686D01*
X0054237Y0404617D01*
X0054110Y0404545D01*
X0053984Y0404469D01*
X0053860Y0404391D01*
X0053738Y0404309D01*
X0053619Y0404223D01*
X0053501Y0404135D01*
X0053387Y0404044D01*
X0053274Y0403949D01*
X0053164Y0403852D01*
X0053057Y0403752D01*
X0052953Y0403649D01*
X0052851Y0403543D01*
X0052752Y0403435D01*
X0052656Y0403324D01*
X0052562Y0403210D01*
X0052472Y0403095D01*
X0052385Y0402976D01*
X0052301Y0402856D01*
X0052221Y0402733D01*
X0052143Y0402609D01*
X0052069Y0402482D01*
X0051998Y0402353D01*
X0051931Y0402223D01*
X0051998Y0402353D01*
X0052069Y0402482D01*
X0052143Y0402609D01*
X0052221Y0402733D01*
X0052301Y0402856D01*
X0052385Y0402976D01*
X0052472Y0403095D01*
X0052562Y0403210D01*
X0052656Y0403324D01*
X0052752Y0403435D01*
X0052851Y0403543D01*
X0052953Y0403649D01*
X0053057Y0403752D01*
X0053164Y0403852D01*
X0053274Y0403949D01*
X0053387Y0404044D01*
X0053501Y0404135D01*
X0053619Y0404223D01*
X0053738Y0404309D01*
X0053860Y0404391D01*
X0053984Y0404469D01*
X0054110Y0404545D01*
X0054237Y0404617D01*
X0054367Y0404686D01*
X0054498Y0404751D01*
X0054632Y0404813D01*
X0054766Y0404871D01*
X0054902Y0404926D01*
X0055040Y0404977D01*
X0055179Y0405025D01*
X0055319Y0405069D01*
X0055460Y0405109D01*
X0055602Y0405145D01*
X0055745Y0405178D01*
X0055889Y0405206D01*
X0056034Y0405232D01*
X0056179Y0405253D01*
X0056325Y0405270D01*
X0056471Y0405284D01*
X0056618Y0405293D01*
X0056764Y0405299D01*
X0056911Y0405301D01*
X0014516Y0327392D02*
X0014463Y0327282D01*
X0014414Y0327171D01*
X0014368Y0327058D01*
X0014325Y0326944D01*
X0014287Y0326829D01*
X0014251Y0326712D01*
X0014220Y0326595D01*
X0014192Y0326476D01*
X0014168Y0326357D01*
X0014147Y0326237D01*
X0014130Y0326117D01*
X0014117Y0325996D01*
X0014108Y0325874D01*
X0014102Y0325753D01*
X0014100Y0325631D01*
X0014102Y0325753D01*
X0014108Y0325874D01*
X0014117Y0325996D01*
X0014130Y0326117D01*
X0014147Y0326237D01*
X0014168Y0326357D01*
X0014192Y0326476D01*
X0014220Y0326595D01*
X0014251Y0326712D01*
X0014287Y0326829D01*
X0014325Y0326944D01*
X0014368Y0327058D01*
X0014414Y0327171D01*
X0014463Y0327282D01*
X0014516Y0327392D01*
D15*
X0040348Y0073535D03*
X0359100Y0389100D03*
D16*
X0356147Y0389100D02*
X0356149Y0388992D01*
X0356155Y0388884D01*
X0356165Y0388777D01*
X0356178Y0388670D01*
X0356196Y0388564D01*
X0356218Y0388458D01*
X0356243Y0388353D01*
X0356272Y0388249D01*
X0356305Y0388147D01*
X0356342Y0388045D01*
X0356382Y0387945D01*
X0356426Y0387847D01*
X0356474Y0387750D01*
X0356525Y0387655D01*
X0356579Y0387562D01*
X0356637Y0387471D01*
X0356698Y0387382D01*
X0356763Y0387295D01*
X0356830Y0387211D01*
X0356901Y0387129D01*
X0356974Y0387050D01*
X0357050Y0386974D01*
X0357129Y0386901D01*
X0357211Y0386830D01*
X0357295Y0386763D01*
X0357382Y0386698D01*
X0357471Y0386637D01*
X0357562Y0386579D01*
X0357655Y0386525D01*
X0357750Y0386474D01*
X0357847Y0386426D01*
X0357945Y0386382D01*
X0358045Y0386342D01*
X0358147Y0386305D01*
X0358249Y0386272D01*
X0358353Y0386243D01*
X0358458Y0386218D01*
X0358564Y0386196D01*
X0358670Y0386178D01*
X0358777Y0386165D01*
X0358884Y0386155D01*
X0358992Y0386149D01*
X0359100Y0386147D01*
X0359208Y0386149D01*
X0359316Y0386155D01*
X0359423Y0386165D01*
X0359530Y0386178D01*
X0359636Y0386196D01*
X0359742Y0386218D01*
X0359847Y0386243D01*
X0359951Y0386272D01*
X0360053Y0386305D01*
X0360155Y0386342D01*
X0360255Y0386382D01*
X0360353Y0386426D01*
X0360450Y0386474D01*
X0360545Y0386525D01*
X0360638Y0386579D01*
X0360729Y0386637D01*
X0360818Y0386698D01*
X0360905Y0386763D01*
X0360989Y0386830D01*
X0361071Y0386901D01*
X0361150Y0386974D01*
X0361226Y0387050D01*
X0361299Y0387129D01*
X0361370Y0387211D01*
X0361437Y0387295D01*
X0361502Y0387382D01*
X0361563Y0387471D01*
X0361621Y0387562D01*
X0361675Y0387655D01*
X0361726Y0387750D01*
X0361774Y0387847D01*
X0361818Y0387945D01*
X0361858Y0388045D01*
X0361895Y0388147D01*
X0361928Y0388249D01*
X0361957Y0388353D01*
X0361982Y0388458D01*
X0362004Y0388564D01*
X0362022Y0388670D01*
X0362035Y0388777D01*
X0362045Y0388884D01*
X0362051Y0388992D01*
X0362053Y0389100D01*
X0362051Y0389208D01*
X0362045Y0389316D01*
X0362035Y0389423D01*
X0362022Y0389530D01*
X0362004Y0389636D01*
X0361982Y0389742D01*
X0361957Y0389847D01*
X0361928Y0389951D01*
X0361895Y0390053D01*
X0361858Y0390155D01*
X0361818Y0390255D01*
X0361774Y0390353D01*
X0361726Y0390450D01*
X0361675Y0390545D01*
X0361621Y0390638D01*
X0361563Y0390729D01*
X0361502Y0390818D01*
X0361437Y0390905D01*
X0361370Y0390989D01*
X0361299Y0391071D01*
X0361226Y0391150D01*
X0361150Y0391226D01*
X0361071Y0391299D01*
X0360989Y0391370D01*
X0360905Y0391437D01*
X0360818Y0391502D01*
X0360729Y0391563D01*
X0360638Y0391621D01*
X0360545Y0391675D01*
X0360450Y0391726D01*
X0360353Y0391774D01*
X0360255Y0391818D01*
X0360155Y0391858D01*
X0360053Y0391895D01*
X0359951Y0391928D01*
X0359847Y0391957D01*
X0359742Y0391982D01*
X0359636Y0392004D01*
X0359530Y0392022D01*
X0359423Y0392035D01*
X0359316Y0392045D01*
X0359208Y0392051D01*
X0359100Y0392053D01*
X0358992Y0392051D01*
X0358884Y0392045D01*
X0358777Y0392035D01*
X0358670Y0392022D01*
X0358564Y0392004D01*
X0358458Y0391982D01*
X0358353Y0391957D01*
X0358249Y0391928D01*
X0358147Y0391895D01*
X0358045Y0391858D01*
X0357945Y0391818D01*
X0357847Y0391774D01*
X0357750Y0391726D01*
X0357655Y0391675D01*
X0357562Y0391621D01*
X0357471Y0391563D01*
X0357382Y0391502D01*
X0357295Y0391437D01*
X0357211Y0391370D01*
X0357129Y0391299D01*
X0357050Y0391226D01*
X0356974Y0391150D01*
X0356901Y0391071D01*
X0356830Y0390989D01*
X0356763Y0390905D01*
X0356698Y0390818D01*
X0356637Y0390729D01*
X0356579Y0390638D01*
X0356525Y0390545D01*
X0356474Y0390450D01*
X0356426Y0390353D01*
X0356382Y0390255D01*
X0356342Y0390155D01*
X0356305Y0390053D01*
X0356272Y0389951D01*
X0356243Y0389847D01*
X0356218Y0389742D01*
X0356196Y0389636D01*
X0356178Y0389530D01*
X0356165Y0389423D01*
X0356155Y0389316D01*
X0356149Y0389208D01*
X0356147Y0389100D01*
X0040348Y0070582D02*
X0040240Y0070584D01*
X0040132Y0070590D01*
X0040025Y0070600D01*
X0039918Y0070613D01*
X0039812Y0070631D01*
X0039706Y0070653D01*
X0039601Y0070678D01*
X0039497Y0070707D01*
X0039395Y0070740D01*
X0039293Y0070777D01*
X0039193Y0070817D01*
X0039095Y0070861D01*
X0038998Y0070909D01*
X0038903Y0070960D01*
X0038810Y0071014D01*
X0038719Y0071072D01*
X0038630Y0071133D01*
X0038543Y0071198D01*
X0038459Y0071265D01*
X0038377Y0071336D01*
X0038298Y0071409D01*
X0038222Y0071485D01*
X0038149Y0071564D01*
X0038078Y0071646D01*
X0038011Y0071730D01*
X0037946Y0071817D01*
X0037885Y0071906D01*
X0037827Y0071997D01*
X0037773Y0072090D01*
X0037722Y0072185D01*
X0037674Y0072282D01*
X0037630Y0072380D01*
X0037590Y0072480D01*
X0037553Y0072582D01*
X0037520Y0072684D01*
X0037491Y0072788D01*
X0037466Y0072893D01*
X0037444Y0072999D01*
X0037426Y0073105D01*
X0037413Y0073212D01*
X0037403Y0073319D01*
X0037397Y0073427D01*
X0037395Y0073535D01*
X0040348Y0070582D02*
X0040456Y0070584D01*
X0040564Y0070590D01*
X0040671Y0070600D01*
X0040778Y0070613D01*
X0040884Y0070631D01*
X0040990Y0070653D01*
X0041095Y0070678D01*
X0041199Y0070707D01*
X0041301Y0070740D01*
X0041403Y0070777D01*
X0041503Y0070817D01*
X0041601Y0070861D01*
X0041698Y0070909D01*
X0041793Y0070960D01*
X0041886Y0071014D01*
X0041977Y0071072D01*
X0042066Y0071133D01*
X0042153Y0071198D01*
X0042237Y0071265D01*
X0042319Y0071336D01*
X0042398Y0071409D01*
X0042474Y0071485D01*
X0042547Y0071564D01*
X0042618Y0071646D01*
X0042685Y0071730D01*
X0042750Y0071817D01*
X0042811Y0071906D01*
X0042869Y0071997D01*
X0042923Y0072090D01*
X0042974Y0072185D01*
X0043022Y0072282D01*
X0043066Y0072380D01*
X0043106Y0072480D01*
X0043143Y0072582D01*
X0043176Y0072684D01*
X0043205Y0072788D01*
X0043230Y0072893D01*
X0043252Y0072999D01*
X0043270Y0073105D01*
X0043283Y0073212D01*
X0043293Y0073319D01*
X0043299Y0073427D01*
X0043301Y0073535D01*
X0043299Y0073643D01*
X0043293Y0073751D01*
X0043283Y0073858D01*
X0043270Y0073965D01*
X0043252Y0074071D01*
X0043230Y0074177D01*
X0043205Y0074282D01*
X0043176Y0074386D01*
X0043143Y0074488D01*
X0043106Y0074590D01*
X0043066Y0074690D01*
X0043022Y0074788D01*
X0042974Y0074885D01*
X0042923Y0074980D01*
X0042869Y0075073D01*
X0042811Y0075164D01*
X0042750Y0075253D01*
X0042685Y0075340D01*
X0042618Y0075424D01*
X0042547Y0075506D01*
X0042474Y0075585D01*
X0042398Y0075661D01*
X0042319Y0075734D01*
X0042237Y0075805D01*
X0042153Y0075872D01*
X0042066Y0075937D01*
X0041977Y0075998D01*
X0041886Y0076056D01*
X0041793Y0076110D01*
X0041698Y0076161D01*
X0041601Y0076209D01*
X0041503Y0076253D01*
X0041403Y0076293D01*
X0041301Y0076330D01*
X0041199Y0076363D01*
X0041095Y0076392D01*
X0040990Y0076417D01*
X0040884Y0076439D01*
X0040778Y0076457D01*
X0040671Y0076470D01*
X0040564Y0076480D01*
X0040456Y0076486D01*
X0040348Y0076488D01*
X0040240Y0076486D01*
X0040132Y0076480D01*
X0040025Y0076470D01*
X0039918Y0076457D01*
X0039812Y0076439D01*
X0039706Y0076417D01*
X0039601Y0076392D01*
X0039497Y0076363D01*
X0039395Y0076330D01*
X0039293Y0076293D01*
X0039193Y0076253D01*
X0039095Y0076209D01*
X0038998Y0076161D01*
X0038903Y0076110D01*
X0038810Y0076056D01*
X0038719Y0075998D01*
X0038630Y0075937D01*
X0038543Y0075872D01*
X0038459Y0075805D01*
X0038377Y0075734D01*
X0038298Y0075661D01*
X0038222Y0075585D01*
X0038149Y0075506D01*
X0038078Y0075424D01*
X0038011Y0075340D01*
X0037946Y0075253D01*
X0037885Y0075164D01*
X0037827Y0075073D01*
X0037773Y0074980D01*
X0037722Y0074885D01*
X0037674Y0074788D01*
X0037630Y0074690D01*
X0037590Y0074590D01*
X0037553Y0074488D01*
X0037520Y0074386D01*
X0037491Y0074282D01*
X0037466Y0074177D01*
X0037444Y0074071D01*
X0037426Y0073965D01*
X0037413Y0073858D01*
X0037403Y0073751D01*
X0037397Y0073643D01*
X0037395Y0073535D01*
D17*
X0109257Y0057013D02*
X0109257Y0047643D01*
X0128943Y0047643D02*
X0128943Y0057013D01*
X0291757Y0057013D02*
X0291757Y0047643D01*
X0311443Y0047643D02*
X0311443Y0057013D01*
D18*
X0339575Y0351575D03*
D19*
X0339625Y0361600D03*
X0339575Y0371600D03*
X0339625Y0381600D03*
D20*
X0246600Y0070537D03*
X0265104Y0058726D03*
X0246600Y0046915D03*
D21*
X0041600Y0242466D03*
X0041600Y0250734D03*
X0041600Y0262466D03*
X0041600Y0270734D03*
X0041600Y0282466D03*
X0041600Y0290734D03*
X0041600Y0302466D03*
X0041600Y0310734D03*
X0041600Y0322466D03*
X0041600Y0330734D03*
D22*
X0354100Y0352860D03*
X0354100Y0360340D03*
D23*
X0309100Y0326600D03*
X0291600Y0341600D03*
X0306600Y0391600D03*
X0299100Y0086600D03*
X0129100Y0086600D03*
D24*
X0119100Y0086600D03*
X0109100Y0086600D03*
X0279100Y0086600D03*
X0289100Y0086600D03*
X0281600Y0297850D03*
X0281600Y0307850D03*
X0271600Y0307850D03*
X0271600Y0297850D03*
X0261600Y0297850D03*
X0261600Y0307850D03*
X0251600Y0307850D03*
X0251600Y0297850D03*
X0241600Y0297850D03*
X0241600Y0307850D03*
X0231600Y0307850D03*
X0231600Y0297850D03*
X0221600Y0297850D03*
X0221600Y0307850D03*
X0211600Y0307850D03*
X0211600Y0297850D03*
X0201600Y0297850D03*
X0201600Y0307850D03*
X0191600Y0307850D03*
X0191600Y0297850D03*
X0181600Y0297850D03*
X0181600Y0307850D03*
X0171600Y0307850D03*
X0171600Y0297850D03*
X0161600Y0297850D03*
X0161600Y0307850D03*
X0151600Y0307850D03*
X0151600Y0297850D03*
X0141600Y0297850D03*
X0141600Y0307850D03*
X0131600Y0307850D03*
X0131600Y0297850D03*
X0121600Y0297850D03*
X0121600Y0307850D03*
X0111600Y0307850D03*
X0111600Y0297850D03*
X0101600Y0297850D03*
X0101600Y0307850D03*
X0091600Y0307850D03*
X0091600Y0297850D03*
X0119100Y0326600D03*
X0129100Y0326600D03*
X0139100Y0326600D03*
X0149100Y0326600D03*
X0159100Y0326600D03*
X0169100Y0326600D03*
X0179100Y0326600D03*
X0189100Y0326600D03*
X0199100Y0326600D03*
X0209100Y0326600D03*
X0219100Y0326600D03*
X0229100Y0326600D03*
X0239100Y0326600D03*
X0249100Y0326600D03*
X0259100Y0326600D03*
X0269100Y0326600D03*
X0279100Y0326600D03*
X0289100Y0326600D03*
X0299100Y0326600D03*
X0291600Y0351600D03*
X0291600Y0361600D03*
X0291600Y0371600D03*
X0291600Y0381600D03*
X0291600Y0391600D03*
X0306600Y0381600D03*
X0306600Y0371600D03*
X0306600Y0361600D03*
X0306600Y0351600D03*
D25*
X0034100Y0331600D03*
X0034100Y0321600D03*
X0034100Y0311600D03*
X0034100Y0301600D03*
X0034100Y0291600D03*
X0034100Y0281600D03*
X0034100Y0271600D03*
X0034100Y0261600D03*
X0034100Y0251600D03*
X0034100Y0241600D03*
D26*
X0246600Y0256600D03*
D27*
X0246600Y0246600D03*
X0246600Y0236600D03*
X0246600Y0226600D03*
X0246600Y0216600D03*
D28*
X0250100Y0201100D03*
X0250100Y0272100D03*
X0368100Y0272100D03*
X0368100Y0201100D03*
D29*
X0320340Y0086600D03*
X0312860Y0086600D03*
X0101590Y0321600D03*
X0094110Y0321600D03*
X0085340Y0331600D03*
X0077860Y0331600D03*
D30*
X0139714Y0195040D02*
X0164194Y0195040D01*
X0164194Y0183160D01*
X0139714Y0183160D01*
X0139714Y0195040D01*
X0139714Y0184479D02*
X0164194Y0184479D01*
X0164194Y0185798D02*
X0139714Y0185798D01*
X0139714Y0187117D02*
X0164194Y0187117D01*
X0164194Y0188436D02*
X0139714Y0188436D01*
X0139714Y0189755D02*
X0164194Y0189755D01*
X0164194Y0191074D02*
X0139714Y0191074D01*
X0139714Y0192393D02*
X0164194Y0192393D01*
X0164194Y0193712D02*
X0139714Y0193712D01*
X0139714Y0195031D02*
X0164194Y0195031D01*
X0208612Y0195040D02*
X0233092Y0195040D01*
X0233092Y0183160D01*
X0208612Y0183160D01*
X0208612Y0195040D01*
X0208612Y0184479D02*
X0233092Y0184479D01*
X0233092Y0185798D02*
X0208612Y0185798D01*
X0208612Y0187117D02*
X0233092Y0187117D01*
X0233092Y0188436D02*
X0208612Y0188436D01*
X0208612Y0189755D02*
X0233092Y0189755D01*
X0233092Y0191074D02*
X0208612Y0191074D01*
X0208612Y0192393D02*
X0233092Y0192393D01*
X0233092Y0193712D02*
X0208612Y0193712D01*
X0208612Y0195031D02*
X0233092Y0195031D01*
D31*
X0085100Y0151600D03*
D32*
X0149399Y0151600D02*
X0154943Y0151600D01*
X0154982Y0144907D02*
X0149439Y0144907D01*
X0149399Y0138214D02*
X0154943Y0138214D01*
X0154982Y0158293D02*
X0149439Y0158293D01*
X0149399Y0164986D02*
X0154943Y0164986D01*
D33*
X0102225Y0151600D03*
D34*
X0217939Y0116600D03*
X0235261Y0116600D03*
X0247939Y0116600D03*
X0265261Y0116600D03*
X0265261Y0096600D03*
X0247939Y0096600D03*
X0235261Y0096600D03*
X0217939Y0096600D03*
D35*
X0256600Y0156757D03*
X0256600Y0176443D03*
X0080350Y0359257D03*
X0080350Y0378943D03*
D36*
X0055911Y0214100D03*
X0032289Y0214100D03*
X0032289Y0171600D03*
X0055911Y0171600D03*
D37*
X0119100Y0359651D03*
X0119100Y0378549D03*
X0286600Y0176049D03*
X0286600Y0157151D03*
D38*
X0194100Y0037100D03*
D39*
X0194100Y0051100D03*
D40*
X0201167Y0144100D03*
X0172033Y0144100D03*
D41*
X0366600Y0351600D03*
X0371600Y0361600D03*
X0366600Y0371600D03*
D42*
X0064100Y0266167D03*
X0064100Y0237033D03*
D43*
X0101600Y0336100D03*
X0101600Y0342100D03*
D44*
X0101600Y0339100D03*
D45*
X0161600Y0204100D03*
X0171600Y0204100D03*
X0203600Y0204100D03*
X0213600Y0204100D03*
X0213600Y0129100D03*
X0203600Y0129100D03*
X0171600Y0129100D03*
X0161600Y0129100D03*
D46*
X0159100Y0058411D03*
X0159100Y0034789D03*
D47*
X0159100Y0354336D03*
X0159100Y0383864D03*
D48*
X0139041Y0251600D03*
D49*
X0175281Y0251600D03*
M02*
