G75*
%MOIN*%
%OFA0B0*%
%FSLAX25Y25*%
%IPPOS*%
%LPD*%
%AMOC8*
5,1,8,0,0,1.08239X$1,22.5*
%
%ADD10C,0.00600*%
%ADD11C,0.02400*%
%ADD12R,0.05118X0.05906*%
%ADD13R,0.08000X0.02600*%
%ADD14R,0.04724X0.02362*%
%ADD15R,0.09843X0.03937*%
%ADD16R,0.23622X0.09843*%
%ADD17R,0.05906X0.05118*%
%ADD18R,0.04600X0.06300*%
%ADD19R,0.05512X0.03937*%
D10*
X0399100Y0314100D02*
X0399240Y0314102D01*
X0399380Y0314108D01*
X0399520Y0314118D01*
X0399660Y0314131D01*
X0399799Y0314149D01*
X0399938Y0314171D01*
X0400075Y0314196D01*
X0400213Y0314225D01*
X0400349Y0314258D01*
X0400484Y0314295D01*
X0400618Y0314336D01*
X0400751Y0314381D01*
X0400883Y0314429D01*
X0401013Y0314481D01*
X0401142Y0314536D01*
X0401269Y0314595D01*
X0401395Y0314658D01*
X0401519Y0314724D01*
X0401640Y0314793D01*
X0401760Y0314866D01*
X0401878Y0314943D01*
X0401993Y0315022D01*
X0402107Y0315105D01*
X0402217Y0315191D01*
X0402326Y0315280D01*
X0402432Y0315372D01*
X0402535Y0315467D01*
X0402636Y0315564D01*
X0402733Y0315665D01*
X0402828Y0315768D01*
X0402920Y0315874D01*
X0403009Y0315983D01*
X0403095Y0316093D01*
X0403178Y0316207D01*
X0403257Y0316322D01*
X0403334Y0316440D01*
X0403407Y0316560D01*
X0403476Y0316681D01*
X0403542Y0316805D01*
X0403605Y0316931D01*
X0403664Y0317058D01*
X0403719Y0317187D01*
X0403771Y0317317D01*
X0403819Y0317449D01*
X0403864Y0317582D01*
X0403905Y0317716D01*
X0403942Y0317851D01*
X0403975Y0317987D01*
X0404004Y0318125D01*
X0404029Y0318262D01*
X0404051Y0318401D01*
X0404069Y0318540D01*
X0404082Y0318680D01*
X0404092Y0318820D01*
X0404098Y0318960D01*
X0404100Y0319100D01*
X0404098Y0318960D01*
X0404092Y0318820D01*
X0404082Y0318680D01*
X0404069Y0318540D01*
X0404051Y0318401D01*
X0404029Y0318262D01*
X0404004Y0318125D01*
X0403975Y0317987D01*
X0403942Y0317851D01*
X0403905Y0317716D01*
X0403864Y0317582D01*
X0403819Y0317449D01*
X0403771Y0317317D01*
X0403719Y0317187D01*
X0403664Y0317058D01*
X0403605Y0316931D01*
X0403542Y0316805D01*
X0403476Y0316681D01*
X0403407Y0316560D01*
X0403334Y0316440D01*
X0403257Y0316322D01*
X0403178Y0316207D01*
X0403095Y0316093D01*
X0403009Y0315983D01*
X0402920Y0315874D01*
X0402828Y0315768D01*
X0402733Y0315665D01*
X0402636Y0315564D01*
X0402535Y0315467D01*
X0402432Y0315372D01*
X0402326Y0315280D01*
X0402217Y0315191D01*
X0402107Y0315105D01*
X0401993Y0315022D01*
X0401878Y0314943D01*
X0401760Y0314866D01*
X0401640Y0314793D01*
X0401519Y0314724D01*
X0401395Y0314658D01*
X0401269Y0314595D01*
X0401142Y0314536D01*
X0401013Y0314481D01*
X0400883Y0314429D01*
X0400751Y0314381D01*
X0400618Y0314336D01*
X0400484Y0314295D01*
X0400349Y0314258D01*
X0400213Y0314225D01*
X0400075Y0314196D01*
X0399938Y0314171D01*
X0399799Y0314149D01*
X0399660Y0314131D01*
X0399520Y0314118D01*
X0399380Y0314108D01*
X0399240Y0314102D01*
X0399100Y0314100D01*
D11*
X0014516Y0089509D02*
X0044508Y0025587D01*
X0044565Y0025477D01*
X0044626Y0025368D01*
X0044690Y0025262D01*
X0044758Y0025157D01*
X0044829Y0025055D01*
X0044903Y0024955D01*
X0044980Y0024857D01*
X0045061Y0024762D01*
X0045144Y0024669D01*
X0045230Y0024579D01*
X0045319Y0024492D01*
X0045411Y0024408D01*
X0045505Y0024327D01*
X0045602Y0024248D01*
X0045701Y0024173D01*
X0045803Y0024101D01*
X0045906Y0024032D01*
X0046012Y0023967D01*
X0046120Y0023905D01*
X0046230Y0023846D01*
X0046342Y0023791D01*
X0046455Y0023739D01*
X0046570Y0023691D01*
X0046687Y0023647D01*
X0046804Y0023606D01*
X0046923Y0023569D01*
X0047043Y0023536D01*
X0047164Y0023507D01*
X0047286Y0023482D01*
X0047409Y0023460D01*
X0047532Y0023442D01*
X0047656Y0023429D01*
X0047780Y0023419D01*
X0047904Y0023413D01*
X0048029Y0023411D01*
X0372655Y0023411D01*
X0377937Y0026676D02*
X0403656Y0082050D01*
X0403864Y0082931D02*
X0403864Y0098214D01*
X0403862Y0098338D01*
X0403856Y0098461D01*
X0403847Y0098585D01*
X0403833Y0098707D01*
X0403816Y0098830D01*
X0403794Y0098952D01*
X0403769Y0099073D01*
X0403740Y0099193D01*
X0403708Y0099312D01*
X0403671Y0099431D01*
X0403631Y0099548D01*
X0403588Y0099663D01*
X0403540Y0099778D01*
X0403489Y0099890D01*
X0403435Y0100001D01*
X0403377Y0100111D01*
X0403316Y0100218D01*
X0403251Y0100324D01*
X0403183Y0100427D01*
X0403112Y0100528D01*
X0403038Y0100627D01*
X0402961Y0100724D01*
X0402880Y0100818D01*
X0402797Y0100909D01*
X0402711Y0100998D01*
X0402622Y0101084D01*
X0402531Y0101167D01*
X0402437Y0101248D01*
X0402340Y0101325D01*
X0402241Y0101399D01*
X0402140Y0101470D01*
X0402037Y0101538D01*
X0401931Y0101603D01*
X0401824Y0101664D01*
X0401714Y0101722D01*
X0401603Y0101776D01*
X0401491Y0101827D01*
X0401376Y0101875D01*
X0401261Y0101918D01*
X0401144Y0101958D01*
X0401025Y0101995D01*
X0400906Y0102027D01*
X0400786Y0102056D01*
X0400665Y0102081D01*
X0400543Y0102103D01*
X0400420Y0102120D01*
X0400298Y0102134D01*
X0400174Y0102143D01*
X0400051Y0102149D01*
X0399927Y0102151D01*
X0319218Y0102151D01*
X0319094Y0102153D01*
X0318971Y0102159D01*
X0318847Y0102168D01*
X0318725Y0102182D01*
X0318602Y0102199D01*
X0318480Y0102221D01*
X0318359Y0102246D01*
X0318239Y0102275D01*
X0318120Y0102307D01*
X0318001Y0102344D01*
X0317884Y0102384D01*
X0317769Y0102427D01*
X0317654Y0102475D01*
X0317542Y0102526D01*
X0317431Y0102580D01*
X0317321Y0102638D01*
X0317214Y0102699D01*
X0317108Y0102764D01*
X0317005Y0102832D01*
X0316904Y0102903D01*
X0316805Y0102977D01*
X0316708Y0103054D01*
X0316614Y0103135D01*
X0316523Y0103218D01*
X0316434Y0103304D01*
X0316348Y0103393D01*
X0316265Y0103484D01*
X0316184Y0103578D01*
X0316107Y0103675D01*
X0316033Y0103774D01*
X0315962Y0103875D01*
X0315894Y0103978D01*
X0315829Y0104084D01*
X0315768Y0104191D01*
X0315710Y0104301D01*
X0315656Y0104412D01*
X0315605Y0104524D01*
X0315557Y0104639D01*
X0315514Y0104754D01*
X0315474Y0104871D01*
X0315437Y0104990D01*
X0315405Y0105109D01*
X0315376Y0105229D01*
X0315351Y0105350D01*
X0315329Y0105472D01*
X0315312Y0105595D01*
X0315298Y0105717D01*
X0315289Y0105841D01*
X0315283Y0105964D01*
X0315281Y0106088D01*
X0315281Y0169080D01*
X0315283Y0169204D01*
X0315289Y0169327D01*
X0315298Y0169451D01*
X0315312Y0169573D01*
X0315329Y0169696D01*
X0315351Y0169818D01*
X0315376Y0169939D01*
X0315405Y0170059D01*
X0315437Y0170178D01*
X0315474Y0170297D01*
X0315514Y0170414D01*
X0315557Y0170529D01*
X0315605Y0170644D01*
X0315656Y0170756D01*
X0315710Y0170867D01*
X0315768Y0170977D01*
X0315829Y0171084D01*
X0315894Y0171190D01*
X0315962Y0171293D01*
X0316033Y0171394D01*
X0316107Y0171493D01*
X0316184Y0171590D01*
X0316265Y0171684D01*
X0316348Y0171775D01*
X0316434Y0171864D01*
X0316523Y0171950D01*
X0316614Y0172033D01*
X0316708Y0172114D01*
X0316805Y0172191D01*
X0316904Y0172265D01*
X0317005Y0172336D01*
X0317108Y0172404D01*
X0317214Y0172469D01*
X0317321Y0172530D01*
X0317431Y0172588D01*
X0317542Y0172642D01*
X0317654Y0172693D01*
X0317769Y0172741D01*
X0317884Y0172784D01*
X0318001Y0172824D01*
X0318120Y0172861D01*
X0318239Y0172893D01*
X0318359Y0172922D01*
X0318480Y0172947D01*
X0318602Y0172969D01*
X0318725Y0172986D01*
X0318847Y0173000D01*
X0318971Y0173009D01*
X0319094Y0173015D01*
X0319218Y0173017D01*
X0331029Y0173017D01*
X0331115Y0173019D01*
X0331201Y0173024D01*
X0331286Y0173034D01*
X0331371Y0173047D01*
X0331455Y0173064D01*
X0331539Y0173084D01*
X0331621Y0173108D01*
X0331702Y0173136D01*
X0331783Y0173167D01*
X0331861Y0173201D01*
X0331938Y0173239D01*
X0332014Y0173281D01*
X0332087Y0173325D01*
X0332158Y0173373D01*
X0332228Y0173424D01*
X0332295Y0173478D01*
X0332359Y0173534D01*
X0332421Y0173594D01*
X0332481Y0173656D01*
X0332537Y0173720D01*
X0332591Y0173787D01*
X0332642Y0173857D01*
X0332690Y0173928D01*
X0332734Y0174002D01*
X0332776Y0174077D01*
X0332814Y0174154D01*
X0332848Y0174232D01*
X0332879Y0174313D01*
X0332907Y0174394D01*
X0332931Y0174476D01*
X0332951Y0174560D01*
X0332968Y0174644D01*
X0332981Y0174729D01*
X0332991Y0174814D01*
X0332996Y0174900D01*
X0332998Y0174986D01*
X0332998Y0310813D01*
X0333000Y0310937D01*
X0333006Y0311060D01*
X0333015Y0311184D01*
X0333029Y0311306D01*
X0333046Y0311429D01*
X0333068Y0311551D01*
X0333093Y0311672D01*
X0333122Y0311792D01*
X0333154Y0311911D01*
X0333191Y0312030D01*
X0333231Y0312147D01*
X0333274Y0312262D01*
X0333322Y0312377D01*
X0333373Y0312489D01*
X0333427Y0312600D01*
X0333485Y0312710D01*
X0333546Y0312817D01*
X0333611Y0312923D01*
X0333679Y0313026D01*
X0333750Y0313127D01*
X0333824Y0313226D01*
X0333901Y0313323D01*
X0333982Y0313417D01*
X0334065Y0313508D01*
X0334151Y0313597D01*
X0334240Y0313683D01*
X0334331Y0313766D01*
X0334425Y0313847D01*
X0334522Y0313924D01*
X0334621Y0313998D01*
X0334722Y0314069D01*
X0334825Y0314137D01*
X0334931Y0314202D01*
X0335038Y0314263D01*
X0335148Y0314321D01*
X0335259Y0314375D01*
X0335371Y0314426D01*
X0335486Y0314474D01*
X0335601Y0314517D01*
X0335718Y0314557D01*
X0335837Y0314594D01*
X0335956Y0314626D01*
X0336076Y0314655D01*
X0336197Y0314680D01*
X0336319Y0314702D01*
X0336442Y0314719D01*
X0336564Y0314733D01*
X0336688Y0314742D01*
X0336811Y0314748D01*
X0336935Y0314750D01*
X0399927Y0314750D01*
X0400051Y0314752D01*
X0400174Y0314758D01*
X0400298Y0314767D01*
X0400420Y0314781D01*
X0400543Y0314798D01*
X0400665Y0314820D01*
X0400786Y0314845D01*
X0400906Y0314874D01*
X0401025Y0314906D01*
X0401144Y0314943D01*
X0401261Y0314983D01*
X0401376Y0315026D01*
X0401491Y0315074D01*
X0401603Y0315125D01*
X0401714Y0315179D01*
X0401824Y0315237D01*
X0401931Y0315298D01*
X0402037Y0315363D01*
X0402140Y0315431D01*
X0402241Y0315502D01*
X0402340Y0315576D01*
X0402437Y0315653D01*
X0402531Y0315734D01*
X0402622Y0315817D01*
X0402711Y0315903D01*
X0402797Y0315992D01*
X0402880Y0316083D01*
X0402961Y0316177D01*
X0403038Y0316274D01*
X0403112Y0316373D01*
X0403183Y0316474D01*
X0403251Y0316577D01*
X0403316Y0316683D01*
X0403377Y0316790D01*
X0403435Y0316900D01*
X0403489Y0317011D01*
X0403540Y0317123D01*
X0403588Y0317238D01*
X0403631Y0317353D01*
X0403671Y0317470D01*
X0403708Y0317589D01*
X0403740Y0317708D01*
X0403769Y0317828D01*
X0403794Y0317949D01*
X0403816Y0318071D01*
X0403833Y0318194D01*
X0403847Y0318316D01*
X0403856Y0318440D01*
X0403862Y0318563D01*
X0403864Y0318687D01*
X0403864Y0333970D01*
X0403656Y0334850D02*
X0369519Y0403124D01*
X0369519Y0403125D02*
X0369462Y0403235D01*
X0369401Y0403344D01*
X0369337Y0403450D01*
X0369269Y0403555D01*
X0369198Y0403657D01*
X0369124Y0403757D01*
X0369047Y0403855D01*
X0368966Y0403950D01*
X0368883Y0404043D01*
X0368797Y0404133D01*
X0368708Y0404220D01*
X0368616Y0404304D01*
X0368522Y0404385D01*
X0368425Y0404464D01*
X0368326Y0404539D01*
X0368224Y0404611D01*
X0368121Y0404680D01*
X0368015Y0404745D01*
X0367907Y0404807D01*
X0367797Y0404866D01*
X0367685Y0404921D01*
X0367572Y0404973D01*
X0367457Y0405021D01*
X0367340Y0405065D01*
X0367223Y0405106D01*
X0367104Y0405143D01*
X0366984Y0405176D01*
X0366863Y0405205D01*
X0366741Y0405230D01*
X0366618Y0405252D01*
X0366495Y0405270D01*
X0366371Y0405283D01*
X0366247Y0405293D01*
X0366123Y0405299D01*
X0365998Y0405301D01*
X0056911Y0405301D01*
X0051931Y0402223D02*
X0014516Y0327392D01*
X0014100Y0325631D02*
X0014100Y0091270D01*
X0014102Y0091148D01*
X0014108Y0091027D01*
X0014117Y0090905D01*
X0014130Y0090784D01*
X0014147Y0090664D01*
X0014168Y0090544D01*
X0014192Y0090425D01*
X0014220Y0090306D01*
X0014251Y0090189D01*
X0014287Y0090072D01*
X0014325Y0089957D01*
X0014368Y0089843D01*
X0014414Y0089730D01*
X0014463Y0089619D01*
X0014516Y0089509D01*
X0014463Y0089619D01*
X0014414Y0089730D01*
X0014368Y0089843D01*
X0014325Y0089957D01*
X0014287Y0090072D01*
X0014251Y0090189D01*
X0014220Y0090306D01*
X0014192Y0090425D01*
X0014168Y0090544D01*
X0014147Y0090664D01*
X0014130Y0090784D01*
X0014117Y0090905D01*
X0014108Y0091027D01*
X0014102Y0091148D01*
X0014100Y0091270D01*
X0044508Y0025587D02*
X0044565Y0025477D01*
X0044626Y0025368D01*
X0044690Y0025262D01*
X0044758Y0025157D01*
X0044829Y0025055D01*
X0044903Y0024955D01*
X0044980Y0024857D01*
X0045061Y0024762D01*
X0045144Y0024669D01*
X0045230Y0024579D01*
X0045319Y0024492D01*
X0045411Y0024408D01*
X0045505Y0024327D01*
X0045602Y0024248D01*
X0045701Y0024173D01*
X0045803Y0024101D01*
X0045906Y0024032D01*
X0046012Y0023967D01*
X0046120Y0023905D01*
X0046230Y0023846D01*
X0046342Y0023791D01*
X0046455Y0023739D01*
X0046570Y0023691D01*
X0046687Y0023647D01*
X0046804Y0023606D01*
X0046923Y0023569D01*
X0047043Y0023536D01*
X0047164Y0023507D01*
X0047286Y0023482D01*
X0047409Y0023460D01*
X0047532Y0023442D01*
X0047656Y0023429D01*
X0047780Y0023419D01*
X0047904Y0023413D01*
X0048029Y0023411D01*
X0315281Y0106088D02*
X0315283Y0105964D01*
X0315289Y0105841D01*
X0315298Y0105717D01*
X0315312Y0105595D01*
X0315329Y0105472D01*
X0315351Y0105350D01*
X0315376Y0105229D01*
X0315405Y0105109D01*
X0315437Y0104990D01*
X0315474Y0104871D01*
X0315514Y0104754D01*
X0315557Y0104639D01*
X0315605Y0104524D01*
X0315656Y0104412D01*
X0315710Y0104301D01*
X0315768Y0104191D01*
X0315829Y0104084D01*
X0315894Y0103978D01*
X0315962Y0103875D01*
X0316033Y0103774D01*
X0316107Y0103675D01*
X0316184Y0103578D01*
X0316265Y0103484D01*
X0316348Y0103393D01*
X0316434Y0103304D01*
X0316523Y0103218D01*
X0316614Y0103135D01*
X0316708Y0103054D01*
X0316805Y0102977D01*
X0316904Y0102903D01*
X0317005Y0102832D01*
X0317108Y0102764D01*
X0317214Y0102699D01*
X0317321Y0102638D01*
X0317431Y0102580D01*
X0317542Y0102526D01*
X0317654Y0102475D01*
X0317769Y0102427D01*
X0317884Y0102384D01*
X0318001Y0102344D01*
X0318120Y0102307D01*
X0318239Y0102275D01*
X0318359Y0102246D01*
X0318480Y0102221D01*
X0318602Y0102199D01*
X0318725Y0102182D01*
X0318847Y0102168D01*
X0318971Y0102159D01*
X0319094Y0102153D01*
X0319218Y0102151D01*
X0315281Y0169080D02*
X0315283Y0169204D01*
X0315289Y0169327D01*
X0315298Y0169451D01*
X0315312Y0169573D01*
X0315329Y0169696D01*
X0315351Y0169818D01*
X0315376Y0169939D01*
X0315405Y0170059D01*
X0315437Y0170178D01*
X0315474Y0170297D01*
X0315514Y0170414D01*
X0315557Y0170529D01*
X0315605Y0170644D01*
X0315656Y0170756D01*
X0315710Y0170867D01*
X0315768Y0170977D01*
X0315829Y0171084D01*
X0315894Y0171190D01*
X0315962Y0171293D01*
X0316033Y0171394D01*
X0316107Y0171493D01*
X0316184Y0171590D01*
X0316265Y0171684D01*
X0316348Y0171775D01*
X0316434Y0171864D01*
X0316523Y0171950D01*
X0316614Y0172033D01*
X0316708Y0172114D01*
X0316805Y0172191D01*
X0316904Y0172265D01*
X0317005Y0172336D01*
X0317108Y0172404D01*
X0317214Y0172469D01*
X0317321Y0172530D01*
X0317431Y0172588D01*
X0317542Y0172642D01*
X0317654Y0172693D01*
X0317769Y0172741D01*
X0317884Y0172784D01*
X0318001Y0172824D01*
X0318120Y0172861D01*
X0318239Y0172893D01*
X0318359Y0172922D01*
X0318480Y0172947D01*
X0318602Y0172969D01*
X0318725Y0172986D01*
X0318847Y0173000D01*
X0318971Y0173009D01*
X0319094Y0173015D01*
X0319218Y0173017D01*
X0331029Y0173017D02*
X0331115Y0173019D01*
X0331201Y0173024D01*
X0331286Y0173034D01*
X0331371Y0173047D01*
X0331455Y0173064D01*
X0331539Y0173084D01*
X0331621Y0173108D01*
X0331702Y0173136D01*
X0331783Y0173167D01*
X0331861Y0173201D01*
X0331938Y0173239D01*
X0332014Y0173281D01*
X0332087Y0173325D01*
X0332158Y0173373D01*
X0332228Y0173424D01*
X0332295Y0173478D01*
X0332359Y0173534D01*
X0332421Y0173594D01*
X0332481Y0173656D01*
X0332537Y0173720D01*
X0332591Y0173787D01*
X0332642Y0173857D01*
X0332690Y0173928D01*
X0332734Y0174002D01*
X0332776Y0174077D01*
X0332814Y0174154D01*
X0332848Y0174232D01*
X0332879Y0174313D01*
X0332907Y0174394D01*
X0332931Y0174476D01*
X0332951Y0174560D01*
X0332968Y0174644D01*
X0332981Y0174729D01*
X0332991Y0174814D01*
X0332996Y0174900D01*
X0332998Y0174986D01*
X0399927Y0102151D02*
X0400051Y0102149D01*
X0400174Y0102143D01*
X0400298Y0102134D01*
X0400420Y0102120D01*
X0400543Y0102103D01*
X0400665Y0102081D01*
X0400786Y0102056D01*
X0400906Y0102027D01*
X0401025Y0101995D01*
X0401144Y0101958D01*
X0401261Y0101918D01*
X0401376Y0101875D01*
X0401491Y0101827D01*
X0401603Y0101776D01*
X0401714Y0101722D01*
X0401824Y0101664D01*
X0401931Y0101603D01*
X0402037Y0101538D01*
X0402140Y0101470D01*
X0402241Y0101399D01*
X0402340Y0101325D01*
X0402437Y0101248D01*
X0402531Y0101167D01*
X0402622Y0101084D01*
X0402711Y0100998D01*
X0402797Y0100909D01*
X0402880Y0100818D01*
X0402961Y0100724D01*
X0403038Y0100627D01*
X0403112Y0100528D01*
X0403183Y0100427D01*
X0403251Y0100324D01*
X0403316Y0100218D01*
X0403377Y0100111D01*
X0403435Y0100001D01*
X0403489Y0099890D01*
X0403540Y0099778D01*
X0403588Y0099663D01*
X0403631Y0099548D01*
X0403671Y0099431D01*
X0403708Y0099312D01*
X0403740Y0099193D01*
X0403769Y0099073D01*
X0403794Y0098952D01*
X0403816Y0098830D01*
X0403833Y0098707D01*
X0403847Y0098585D01*
X0403856Y0098461D01*
X0403862Y0098338D01*
X0403864Y0098214D01*
X0403864Y0082931D02*
X0403862Y0082848D01*
X0403857Y0082765D01*
X0403848Y0082683D01*
X0403836Y0082601D01*
X0403820Y0082519D01*
X0403801Y0082438D01*
X0403779Y0082358D01*
X0403753Y0082280D01*
X0403724Y0082202D01*
X0403692Y0082125D01*
X0403656Y0082050D01*
X0403692Y0082125D01*
X0403724Y0082202D01*
X0403753Y0082280D01*
X0403779Y0082358D01*
X0403801Y0082438D01*
X0403820Y0082519D01*
X0403836Y0082601D01*
X0403848Y0082683D01*
X0403857Y0082765D01*
X0403862Y0082848D01*
X0403864Y0082931D01*
X0377937Y0026676D02*
X0377868Y0026541D01*
X0377795Y0026407D01*
X0377718Y0026276D01*
X0377638Y0026147D01*
X0377555Y0026019D01*
X0377468Y0025894D01*
X0377378Y0025772D01*
X0377286Y0025651D01*
X0377190Y0025533D01*
X0377091Y0025418D01*
X0376989Y0025305D01*
X0376884Y0025195D01*
X0376777Y0025087D01*
X0376666Y0024982D01*
X0376553Y0024880D01*
X0376438Y0024782D01*
X0376320Y0024686D01*
X0376200Y0024593D01*
X0376077Y0024503D01*
X0375952Y0024417D01*
X0375824Y0024333D01*
X0375695Y0024254D01*
X0375564Y0024177D01*
X0375430Y0024104D01*
X0375295Y0024034D01*
X0375158Y0023968D01*
X0375020Y0023905D01*
X0374880Y0023846D01*
X0374738Y0023791D01*
X0374595Y0023739D01*
X0374451Y0023691D01*
X0374305Y0023646D01*
X0374159Y0023606D01*
X0374011Y0023569D01*
X0373863Y0023536D01*
X0373714Y0023507D01*
X0373564Y0023481D01*
X0373413Y0023460D01*
X0373262Y0023442D01*
X0373111Y0023429D01*
X0372959Y0023419D01*
X0372807Y0023413D01*
X0372655Y0023411D01*
X0372807Y0023413D01*
X0372959Y0023419D01*
X0373111Y0023429D01*
X0373262Y0023442D01*
X0373413Y0023460D01*
X0373564Y0023481D01*
X0373714Y0023507D01*
X0373863Y0023536D01*
X0374011Y0023569D01*
X0374159Y0023606D01*
X0374305Y0023646D01*
X0374451Y0023691D01*
X0374595Y0023739D01*
X0374738Y0023791D01*
X0374880Y0023846D01*
X0375020Y0023905D01*
X0375158Y0023968D01*
X0375295Y0024034D01*
X0375430Y0024104D01*
X0375564Y0024177D01*
X0375695Y0024254D01*
X0375824Y0024333D01*
X0375952Y0024417D01*
X0376077Y0024503D01*
X0376200Y0024593D01*
X0376320Y0024686D01*
X0376438Y0024782D01*
X0376553Y0024880D01*
X0376666Y0024982D01*
X0376777Y0025087D01*
X0376884Y0025195D01*
X0376989Y0025305D01*
X0377091Y0025418D01*
X0377190Y0025533D01*
X0377286Y0025651D01*
X0377378Y0025772D01*
X0377468Y0025894D01*
X0377555Y0026019D01*
X0377638Y0026147D01*
X0377718Y0026276D01*
X0377795Y0026407D01*
X0377868Y0026541D01*
X0377937Y0026676D01*
X0332998Y0310813D02*
X0333000Y0310937D01*
X0333006Y0311060D01*
X0333015Y0311184D01*
X0333029Y0311306D01*
X0333046Y0311429D01*
X0333068Y0311551D01*
X0333093Y0311672D01*
X0333122Y0311792D01*
X0333154Y0311911D01*
X0333191Y0312030D01*
X0333231Y0312147D01*
X0333274Y0312262D01*
X0333322Y0312377D01*
X0333373Y0312489D01*
X0333427Y0312600D01*
X0333485Y0312710D01*
X0333546Y0312817D01*
X0333611Y0312923D01*
X0333679Y0313026D01*
X0333750Y0313127D01*
X0333824Y0313226D01*
X0333901Y0313323D01*
X0333982Y0313417D01*
X0334065Y0313508D01*
X0334151Y0313597D01*
X0334240Y0313683D01*
X0334331Y0313766D01*
X0334425Y0313847D01*
X0334522Y0313924D01*
X0334621Y0313998D01*
X0334722Y0314069D01*
X0334825Y0314137D01*
X0334931Y0314202D01*
X0335038Y0314263D01*
X0335148Y0314321D01*
X0335259Y0314375D01*
X0335371Y0314426D01*
X0335486Y0314474D01*
X0335601Y0314517D01*
X0335718Y0314557D01*
X0335837Y0314594D01*
X0335956Y0314626D01*
X0336076Y0314655D01*
X0336197Y0314680D01*
X0336319Y0314702D01*
X0336442Y0314719D01*
X0336564Y0314733D01*
X0336688Y0314742D01*
X0336811Y0314748D01*
X0336935Y0314750D01*
X0399927Y0314750D02*
X0400051Y0314752D01*
X0400174Y0314758D01*
X0400298Y0314767D01*
X0400420Y0314781D01*
X0400543Y0314798D01*
X0400665Y0314820D01*
X0400786Y0314845D01*
X0400906Y0314874D01*
X0401025Y0314906D01*
X0401144Y0314943D01*
X0401261Y0314983D01*
X0401376Y0315026D01*
X0401491Y0315074D01*
X0401603Y0315125D01*
X0401714Y0315179D01*
X0401824Y0315237D01*
X0401931Y0315298D01*
X0402037Y0315363D01*
X0402140Y0315431D01*
X0402241Y0315502D01*
X0402340Y0315576D01*
X0402437Y0315653D01*
X0402531Y0315734D01*
X0402622Y0315817D01*
X0402711Y0315903D01*
X0402797Y0315992D01*
X0402880Y0316083D01*
X0402961Y0316177D01*
X0403038Y0316274D01*
X0403112Y0316373D01*
X0403183Y0316474D01*
X0403251Y0316577D01*
X0403316Y0316683D01*
X0403377Y0316790D01*
X0403435Y0316900D01*
X0403489Y0317011D01*
X0403540Y0317123D01*
X0403588Y0317238D01*
X0403631Y0317353D01*
X0403671Y0317470D01*
X0403708Y0317589D01*
X0403740Y0317708D01*
X0403769Y0317828D01*
X0403794Y0317949D01*
X0403816Y0318071D01*
X0403833Y0318194D01*
X0403847Y0318316D01*
X0403856Y0318440D01*
X0403862Y0318563D01*
X0403864Y0318687D01*
X0403864Y0333970D02*
X0403862Y0334053D01*
X0403857Y0334136D01*
X0403848Y0334218D01*
X0403836Y0334300D01*
X0403820Y0334382D01*
X0403801Y0334463D01*
X0403779Y0334543D01*
X0403753Y0334621D01*
X0403724Y0334699D01*
X0403692Y0334776D01*
X0403656Y0334851D01*
X0403692Y0334776D01*
X0403724Y0334699D01*
X0403753Y0334621D01*
X0403779Y0334543D01*
X0403801Y0334463D01*
X0403820Y0334382D01*
X0403836Y0334300D01*
X0403848Y0334218D01*
X0403857Y0334136D01*
X0403862Y0334053D01*
X0403864Y0333970D01*
X0369519Y0403125D02*
X0369462Y0403235D01*
X0369401Y0403344D01*
X0369337Y0403450D01*
X0369269Y0403555D01*
X0369198Y0403657D01*
X0369124Y0403757D01*
X0369047Y0403855D01*
X0368966Y0403950D01*
X0368883Y0404043D01*
X0368797Y0404133D01*
X0368708Y0404220D01*
X0368616Y0404304D01*
X0368522Y0404385D01*
X0368425Y0404464D01*
X0368326Y0404539D01*
X0368224Y0404611D01*
X0368121Y0404680D01*
X0368015Y0404745D01*
X0367907Y0404807D01*
X0367797Y0404866D01*
X0367685Y0404921D01*
X0367572Y0404973D01*
X0367457Y0405021D01*
X0367340Y0405065D01*
X0367223Y0405106D01*
X0367104Y0405143D01*
X0366984Y0405176D01*
X0366863Y0405205D01*
X0366741Y0405230D01*
X0366618Y0405252D01*
X0366495Y0405270D01*
X0366371Y0405283D01*
X0366247Y0405293D01*
X0366123Y0405299D01*
X0365998Y0405301D01*
X0056911Y0405301D02*
X0056764Y0405299D01*
X0056618Y0405293D01*
X0056471Y0405284D01*
X0056325Y0405270D01*
X0056179Y0405253D01*
X0056034Y0405232D01*
X0055889Y0405206D01*
X0055745Y0405178D01*
X0055602Y0405145D01*
X0055460Y0405109D01*
X0055319Y0405069D01*
X0055179Y0405025D01*
X0055040Y0404977D01*
X0054902Y0404926D01*
X0054766Y0404871D01*
X0054632Y0404813D01*
X0054498Y0404751D01*
X0054367Y0404686D01*
X0054237Y0404617D01*
X0054110Y0404545D01*
X0053984Y0404469D01*
X0053860Y0404391D01*
X0053738Y0404309D01*
X0053619Y0404223D01*
X0053501Y0404135D01*
X0053387Y0404044D01*
X0053274Y0403949D01*
X0053164Y0403852D01*
X0053057Y0403752D01*
X0052953Y0403649D01*
X0052851Y0403543D01*
X0052752Y0403435D01*
X0052656Y0403324D01*
X0052562Y0403210D01*
X0052472Y0403095D01*
X0052385Y0402976D01*
X0052301Y0402856D01*
X0052221Y0402733D01*
X0052143Y0402609D01*
X0052069Y0402482D01*
X0051998Y0402353D01*
X0051931Y0402223D01*
X0051998Y0402353D01*
X0052069Y0402482D01*
X0052143Y0402609D01*
X0052221Y0402733D01*
X0052301Y0402856D01*
X0052385Y0402976D01*
X0052472Y0403095D01*
X0052562Y0403210D01*
X0052656Y0403324D01*
X0052752Y0403435D01*
X0052851Y0403543D01*
X0052953Y0403649D01*
X0053057Y0403752D01*
X0053164Y0403852D01*
X0053274Y0403949D01*
X0053387Y0404044D01*
X0053501Y0404135D01*
X0053619Y0404223D01*
X0053738Y0404309D01*
X0053860Y0404391D01*
X0053984Y0404469D01*
X0054110Y0404545D01*
X0054237Y0404617D01*
X0054367Y0404686D01*
X0054498Y0404751D01*
X0054632Y0404813D01*
X0054766Y0404871D01*
X0054902Y0404926D01*
X0055040Y0404977D01*
X0055179Y0405025D01*
X0055319Y0405069D01*
X0055460Y0405109D01*
X0055602Y0405145D01*
X0055745Y0405178D01*
X0055889Y0405206D01*
X0056034Y0405232D01*
X0056179Y0405253D01*
X0056325Y0405270D01*
X0056471Y0405284D01*
X0056618Y0405293D01*
X0056764Y0405299D01*
X0056911Y0405301D01*
X0014516Y0327392D02*
X0014463Y0327282D01*
X0014414Y0327171D01*
X0014368Y0327058D01*
X0014325Y0326944D01*
X0014287Y0326829D01*
X0014251Y0326712D01*
X0014220Y0326595D01*
X0014192Y0326476D01*
X0014168Y0326357D01*
X0014147Y0326237D01*
X0014130Y0326117D01*
X0014117Y0325996D01*
X0014108Y0325874D01*
X0014102Y0325753D01*
X0014100Y0325631D01*
X0014102Y0325753D01*
X0014108Y0325874D01*
X0014117Y0325996D01*
X0014130Y0326117D01*
X0014147Y0326237D01*
X0014168Y0326357D01*
X0014192Y0326476D01*
X0014220Y0326595D01*
X0014251Y0326712D01*
X0014287Y0326829D01*
X0014325Y0326944D01*
X0014368Y0327058D01*
X0014414Y0327171D01*
X0014463Y0327282D01*
X0014516Y0327392D01*
D12*
X0069110Y0282850D03*
X0076590Y0282850D03*
X0076590Y0275350D03*
X0069110Y0275350D03*
X0069110Y0267850D03*
X0076590Y0267850D03*
X0076590Y0257850D03*
X0069110Y0257850D03*
X0211610Y0270350D03*
X0219090Y0270350D03*
D13*
X0227450Y0261600D03*
X0227450Y0256600D03*
X0227450Y0251600D03*
X0227450Y0246600D03*
X0227450Y0241600D03*
X0227450Y0236600D03*
X0227450Y0231600D03*
X0203250Y0231600D03*
X0203250Y0236600D03*
X0203250Y0241600D03*
X0203250Y0246600D03*
X0203250Y0251600D03*
X0203250Y0256600D03*
X0203250Y0261600D03*
D14*
X0278076Y0256600D03*
X0278076Y0251600D03*
X0278076Y0246600D03*
X0278076Y0241600D03*
X0300124Y0241600D03*
X0300124Y0246600D03*
X0300124Y0251600D03*
X0300124Y0256600D03*
D15*
X0304100Y0266600D03*
X0304100Y0276600D03*
D16*
X0284100Y0271600D03*
D17*
X0267850Y0250340D03*
X0267850Y0242860D03*
X0210350Y0277860D03*
X0210350Y0285340D03*
X0265350Y0341610D03*
X0265350Y0349090D03*
D18*
X0271850Y0215350D03*
X0277850Y0215350D03*
X0283850Y0215350D03*
D19*
X0219769Y0277860D03*
X0219769Y0285340D03*
X0228431Y0281600D03*
M02*
